<svg xmlns="http://www.w3.org/2000/svg">
  <defs>
    <g id="dashboard" viewBox="0 0 24 24" width="18px" height="18px">
      <path d="M0 0h24v24H0V0z" fill="none"/>
      <path d="M4 13h6c.55 0 1-.45 1-1V4c0-.55-.45-1-1-1H4c-.55 0-1 .45-1 1v8c0 .55.45 1 1 1zm0 8h6c.55 0 1-.45 1-1v-4c0-.55-.45-1-1-1H4c-.55 0-1 .45-1 1v4c0 .55.45 1 1 1zm10 0h6c.55 0 1-.45 1-1v-8c0-.55-.45-1-1-1h-6c-.55 0-1 .45-1 1v8c0 .55.45 1 1 1zM13 4v4c0 .55.45 1 1 1h6c.55 0 1-.45 1-1V4c0-.55-.45-1-1-1h-6c-.55 0-1 .45-1 1z"/>
    </g>
    <svg id="dots-vertical" viewBox="0 0 24 24" width="18px" height="18px">
      <path d="M0 0h24v24H0V0z" fill="none"/>
      <path d="M12 8c1.1 0 2-.9 2-2s-.9-2-2-2-2 .9-2 2 .9 2 2 2zm0 2c-1.1 0-2 .9-2 2s.9 2 2 2 2-.9 2-2-.9-2-2-2zm0 6c-1.1 0-2 .9-2 2s.9 2 2 2 2-.9 2-2-.9-2-2-2z"/>
    </svg>
    <g id="budget" viewBox="0 0 24 24" width="18px" height="18px">
      <path class="a" d="M33.41,19.83A17.61,17.61,0,0,1,34.7,10.7c.18-.36.52-.78.18-1.17s-.81-.12-1.21,0a7.78,7.78,0,0,0-4.79,4c-.27.47-.46.94-1.19.84a33.57,33.57,0,0,0-7.43-.14,13.38,13.38,0,0,0-5.32,1.46A12.88,12.88,0,0,0,9.27,22a2,2,0,0,1-.12-.41c-.28-1.3-1-2-2.13-1.83H7A1.91,1.91,0,0,0,5.36,22,6.86,6.86,0,0,0,8,27.79a1.58,1.58,0,0,1,.64.92,12,12,0,0,0,3.88,6.35,2.76,2.76,0,0,1,1,2.39c-.27,2.72.81,4.1,3.77,4.5a5.88,5.88,0,0,0,.69.12c2,.41,1.78.4,2.15-1.42.25-1.22.74-1.58,2-1.39a17.62,17.62,0,0,0,3.08.15c2.47,0,2.48,0,3.15,2.31.12.42.21.88.8.77a15.36,15.36,0,0,0,4-.93,2.55,2.55,0,0,0,1.73-2.31c-.21-2.13.48-3,1.76-4.59.18-.21.56-.58.77-.88a4.42,4.42,0,0,1,3.52-2.06c1.21-.06,1.75-.43,1.75-1.82V25.79s0-.06,0-.09a1.66,1.66,0,0,0-1.46-1.82,4.24,4.24,0,0,1-3.09-2.54,12.23,12.23,0,0,0-4.72-5M35.05,27.2a1.79,1.79,0,0,1-1.68-1.89v0a1.76,1.76,0,0,1,1.85-1.66h0a1.79,1.79,0,1,1-.2,3.57Z"/>
      <path class="a" d="M16.94,14.82A4.7,4.7,0,1,1,23,14"/>
    </g>
    <g id="dine-in" viewBox="0 0 24 24" width="18px" height="18px">
      <path d="M0 0h24v24H0V0z" fill="none"/>
      <path d="M21 10h-3V6c0-1.1-.9-2-2-2h-8c-1.1 0-2 .9-2 2v4H3v2h3v8h2v-8h8v8h2v-8h3zM8 6h8v4H8V6z"/>
    </g>
    <svg id="hamburger" viewBox="0 0 24 24" width="40px" height="32px" xmlns="http://www.w3.org/2000/svg">
      <g>
        <path d="M3 6h18c0.55 0 1-0.45 1-1s-0.45-1-1-1H3C2.45 4 2 4.45 2 5s0.45 1 1 1zm0 6h18c0.55 0 1-0.45 1-1s-0.45-1-1-1H3c-0.55 0-1 0.45-1 1s0.45 1 1 1zm0 6h18c0.55 0 1-0.45 1-1s-0.45-1-1-1H3c-0.55 0-1 0.45-1 1s0.45 1 1 1z"/>
      </g>
    </svg>
    <svg id="close" viewBox="0 0 24 24" width="30px" height="30px" xmlns="http://www.w3.org/2000/svg">
      <g>
        <path d="M0 0h24v24H0V0z" fill="none"/>
        <path d="M18.3 5.71a1 1 0 0 0-1.41 0L12 10.59 7.11 5.7a1 1 0 0 0-1.41 1.41L10.59 12l-4.89 4.89a1 1 0 1 0 1.41 1.41L12 13.41l4.89 4.89a1 1 0 0 0 1.41-1.41L13.41 12l4.89-4.89a1 1 0 0 0 0-1.4z"/>
      </g>
    </svg>
    <g id="packaging" viewBox="0 0 24 24" width="40px" height="40px">
      <path d="M0 0h24v24H0V0z" fill="none"/>
      <path d="M21 6.5l-9-4-9 4V17.5l9 4 9-4V6.5zm-9 13l-7-3.11V7.39l7 3.11v9.0zm1-9l7-3.11v9.0l-7 3.11v-9zM5.5 6L12 3.24 18.5 6 12 8.76 5.5 6z"/>
    </g>
    <g id="delivery" viewBox="0 0 24 24" width="18px" height="18px">
      <path d="M0 0h24v24H0z" fill="none"/>
      <path d="M3 4h13v12H3V4zm15 4h3l2 3v5h-2a2 2 0 1 1-4 0H8a2 2 0 1 1-4 0H2v-2h1V4a1 1 0 0 1 1-1h13a1 1 0 0 1 1 1v4zm0 2v2h3.5l-1.5-2H18z"/>
    </g>
    <g id="coupon" viewBox="0 0 24 24" width="18px" height="18px">
      <path d="M0 0h24v24H0z" fill="none"/>
      <path d="M21 5H3c-.55 0-1 .45-1 1v4c1.1 0 2 .9 2 2s-.9 2-2 2v4c0 .55.45 1 1 1h18c.55 0 1-.45 1-1v-4c-1.1 0-2-.9-2-2s.9-2 2-2V6c0-.55-.45-1-1-1zM7 15h2v2H7v-2zm0-4h2v2H7v-2zm0-4h2v2H7V7z"/>
    </g>
    <g id="employees" enable-background="new 0 0 24 24" viewBox="0 0 24 24" width="18px" height="18px">
      <rect fill="none" height="24" width="24"/>
      <path d="M12,12.75c1.63,0,3.07,0.39,4.24,0.9c1.08,0.48,1.76,1.56,1.76,2.73L18,17c0,0.55-0.45,1-1,1H7c-0.55,0-1-0.45-1-1l0-0.61 c0-1.18,0.68-2.26,1.76-2.73C8.93,13.14,10.37,12.75,12,12.75z M4,13c1.1,0,2-0.9,2-2c0-1.1-0.9-2-2-2s-2,0.9-2,2 C2,12.1,2.9,13,4,13z M5.13,14.1C4.76,14.04,4.39,14,4,14c-0.99,0-1.93,0.21-2.78,0.58C0.48,14.9,0,15.62,0,16.43L0,17 c0,0.55,0.45,1,1,1l3.5,0v-1.61C4.5,15.56,4.73,14.78,5.13,14.1z M20,13c1.1,0,2-0.9,2-2c0-1.1-0.9-2-2-2s-2,0.9-2,2 C18,12.1,18.9,13,20,13z M24,16.43c0-0.81-0.48-1.53-1.22-1.85C21.93,14.21,20.99,14,20,14c-0.39,0-0.76,0.04-1.13,0.1 c0.4,0.68,0.63,1.46,0.63,2.29V18l3.5,0c0.55,0,1-0.45,1-1L24,16.43z M12,6c1.66,0,3,1.34,3,3c0,1.66-1.34,3-3,3s-3-1.34-3-3 C9,7.34,10.34,6,12,6z"/>
    </g>
    <g id="feedback" viewBox="0 0 24 24" width="18px" height="18px">
      <path d="M0 0h24v24H0V0z" fill="none"/>
      <path d="M20 2H4.01c-1.1 0-2 .9-2 2v18L6 18h14c1.1 0 2-.9 2-2V4c0-1.1-.9-2-2-2zm-7 12h-2v-2h2v2zm0-5c0 .55-.45 1-1 1s-1-.45-1-1V7c0-.55.45-1 1-1s1 .45 1 1v2z"/>
    </g>
    <g id="follow_up" viewBox="0 0 24 24" width="18px" height="18px">
      <path d="M0 0h24v24H0V0z" fill="none"/>
      <path d="M20 3h-7c-.55 0-1 .45-1 1v9l3-3h5c.55 0 1-.45 1-1V4c0-.55-.45-1-1-1zm-.77 12.26l-2.54-.29c-.61-.07-1.21.14-1.64.57l-1.84 1.84c-2.83-1.44-5.15-3.75-6.59-6.59l1.85-1.85c.43-.43.64-1.03.57-1.64l-.29-2.52c-.12-1.01-.97-1.77-1.99-1.77H5.03c-1.13 0-2.07.94-2 2.07.53 8.54 7.36 15.36 15.89 15.89 1.13.07 2.07-.87 2.07-2v-1.73c.01-1.01-.75-1.86-1.76-1.98z"/>
    </g>
    <g id="products" viewBox="0 0 24 24" width="18px" height="18px">
      <path d="M0 0h24v24H0V0z" fill="none"/>
      <path d="M11.15 3.4L7.43 9.48c-.41.66.07 1.52.85 1.52h7.43c.78 0 1.26-.86.85-1.52L12.85 3.4c-.39-.64-1.31-.64-1.7 0z"/>
      <circle cx="17.5" cy="17.5" r="4.5"/>
      <path d="M4 21.5h6c.55 0 1-.45 1-1v-6c0-.55-.45-1-1-1H4c-.55 0-1 .45-1 1v6c0 .55.45 1 1 1z"/>
    </g>
    <g id="company-details" viewBox="0 0 24 24" width="18px" height="18px">
      <path d="M22,7H13V2a1,1,0,0,0-1-1H2A1,1,0,0,0,1,2V22a1,1,0,0,0,1,1H22a1,1,0,0,0,1-1V8A1,1,0,0,0,22,7ZM11,13H3V11h8Zm0-5V9H3V7h8ZM3,15h8v2H3ZM11,3V5H3V3ZM3,19h8v2H3Zm18,2H13V9h8Zm-5-5H14V14h2Zm0,4H14V18h2Zm4-4H18V14h2Zm-4-4H14V10h2Zm4,0H18V10h2Zm0,8H18V18h2Z"/>
    </g>
    <g id="properties" viewBox="0 0 24 24" width="18px" height="18px">
      <path d="M0 0h24v24H0V0z" fill="none"/>
      <path d="M11.15 3.4L7.43 9.48c-.41.66.07 1.52.85 1.52h7.43c.78 0 1.26-.86.85-1.52L12.85 3.4c-.39-.64-1.31-.64-1.7 0z"/>
      <circle cx="17.5" cy="17.5" r="4.5"/>
      <path d="M4 21.5h6c.55 0 1-.45 1-1v-6c0-.55-.45-1-1-1H4c-.55 0-1 .45-1 1v6c0 .55.45 1 1 1z"/>
    </g>
    <g id="stores" viewBox="0 0 24 24" width="18px" height="18px">
      <path d="M0 0h24v24H0V0z" fill="none"/>
      <path d="M5 6h14c.55 0 1-.45 1-1s-.45-1-1-1H5c-.55 0-1 .45-1 1s.45 1 1 1zm15.16 1.8c-.09-.46-.5-.8-.98-.8H4.82c-.48 0-.89.34-.98.8l-1 5c-.12.62.35 1.2.98 1.2H4v5c0 .55.45 1 1 1h8c.55 0 1-.45 1-1v-5h4v5c0 .55.45 1 1 1s1-.45 1-1v-5h.18c.63 0 1.1-.58.98-1.2l-1-5zM12 18H6v-4h6v4z"/>
    </g>
    <g id="officeLocation" viewBox="0 0 24 24" width="18px" height="18px">
      <path d="M0 0h24v24H0V0z" fill="none"/>
      <path d="M5 6h14c.55 0 1-.45 1-1s-.45-1-1-1H5c-.55 0-1 .45-1 1s.45 1 1 1zm15.16 1.8c-.09-.46-.5-.8-.98-.8H4.82c-.48 0-.89.34-.98.8l-1 5c-.12.62.35 1.2.98 1.2H4v5c0 .55.45 1 1 1h8c.55 0 1-.45 1-1v-5h4v5c0 .55.45 1 1 1s1-.45 1-1v-5h.18c.63 0 1.1-.58.98-1.2l-1-5zM12 18H6v-4h6v4z"/>
    </g>
    <g id="customerLeads" height="18px" width="18px" viewBox="0 0 24 24">
      <path d="M0 0h24v24H0V0z" fill="none"/>
      <path d="M15 4v7H5.17L4 12.17V4h11m1-2H3c-.55 0-1 .45-1 1v14l4-4h10c.55 0 1-.45 1-1V3c0-.55-.45-1-1-1zm5 4h-2v9H6v2c0 .55.45 1 1 1h11l4 4V7c0-.55-.45-1-1-1z"/>
    </g>
    <g id="sales" height="18px" width="18px" viewBox="0 0 24 24">
      <path d="M0 0h24v24H0V0z" fill="none"/>
      <path d="M15 4v7H5.17L4 12.17V4h11m1-2H3c-.55 0-1 .45-1 1v14l4-4h10c.55 0 1-.45 1-1V3c0-.55-.45-1-1-1zm5 4h-2v9H6v2c0 .55.45 1 1 1h11l4 4V7c0-.55-.45-1-1-1z"/>
    </g>
    <g id="orders" enable-background="new 0 0 24 24" viewBox="0 0 24 24" width="18px" height="18px">
      <rect fill="none" height="24" width="24"/>
      <path d="M3,5v14h18V5H3z M7,7v2H5V7H7z M5,13v-2h2v2H5z M5,15h2v2H5V15z M19,17H9v-2h10V17z M19,13H9v-2h10V13z M19,9H9V7h10V9z"/>
    </g>
    <g id="customerRequirements" enable-background="new 0 0 24 24" viewBox="0 0 24 24" width="18px" height="18px">
      <rect fill="none" height="24" width="24"/>
      <path d="M3,5v14h18V5H3z M7,7v2H5V7H7z M5,13v-2h2v2H5z M5,15h2v2H5V15z M19,17H9v-2h10V17z M19,13H9v-2h10V13z M19,9H9V7h10V9z"/>
    </g>
    <g id="message_template" viewBox="0 0 24 24" width="18px" height="18px">
      <path d="M0 0h24v24H0z" fill="none"/>
      <path d="M20 2H4c-1.1 0-1.99.9-1.99 2L2 22l4-4h14c1.1 0 2-.9 2-2V4c0-1.1-.9-2-2-2zm-2 12H6v-2h12v2zm0-3H6V9h12v2zm0-3H6V6h12v2z"/>
    </g>
    <g id="integrations" enable-background="new 0 0 24 24" height="24px" viewBox="0 0 24 24" width="24px">
      <rect fill="none" height="24" width="24"/>
      <path d="M21,14c0-0.55-0.45-1-1-1h-2v2h2C20.55,15,21,14.55,21,14z"/>
      <path d="M20,17h-2v2h2c0.55,0,1-0.45,1-1C21,17.45,20.55,17,20,17z"/>
      <path d="M12,14h-2v4h2c0,1.1,0.9,2,2,2h3v-8h-3C12.9,12,12,12.9,12,14z"/>
      <path d="M5,13c0-1.1,0.9-2,2-2h1.5c1.93,0,3.5-1.57,3.5-3.5S10.43,4,8.5,4H5C4.45,4,4,4.45,4,5c0,0.55,0.45,1,1,1h3.5 C9.33,6,10,6.67,10,7.5S9.33,9,8.5,9H7c-2.21,0-4,1.79-4,4c0,2.21,1.79,4,4,4h2v-2H7C5.9,15,5,14.1,5,13z"/>
    </g>
    <g id="settings" enable-background="new 0 0 24 24" height="24px" viewBox="0 0 24 24" width="24px">
      <path d="M24.74,14.23a.93.93,0,0,0-.34-.5l-.48-.42,0-.07,0-.27,0-.63a.14.14,0,0,1,0-.07l.57-.57a1,1,0,0,0,.17-.28,1,1,0,0,0-.06-.85l-1-1.76A1,1,0,0,0,23,8.38a1.08,1.08,0,0,0-.61,0l-.61.22-.52-.23-.34-.22a.15.15,0,0,1,0-.06l-.2-.78A1,1,0,0,0,20.5,7,1,1,0,0,0,20,6.71a1,1,0,0,0-.3,0h-2a1,1,0,0,0-.67.27.94.94,0,0,0-.28.54l-.13.63,0,.07-.23.15-.56.28H15.7l-.78-.22a1,1,0,0,0-.84.21.94.94,0,0,0-.19.24l-1,1.76a1,1,0,0,0-.1.72.93.93,0,0,0,.33.51l.47.43,0,.07,0,.84v.09a.15.15,0,0,1,0,.07l-.59.56a1,1,0,0,0-.24.83.94.94,0,0,0,.11.29l1,1.78a1,1,0,0,0,.56.45,1.14,1.14,0,0,0,.61,0l.61-.19h.08l.24.12.52.35a.14.14,0,0,1,0,.06l.19.79a.93.93,0,0,0,.14.29.95.95,0,0,0,.76.39l2.05,0a1,1,0,0,0,.66-.26.93.93,0,0,0,.29-.53l.15-.62,0-.07.77-.49.17-.1h.08l.78.21a1,1,0,0,0,.84-.23.94.94,0,0,0,.19-.24l1-1.79A1,1,0,0,0,24.74,14.23Zm-1.94.53-.36.65a2.5,2.5,0,0,0-3.29,2h-.91a2.49,2.49,0,0,0-3.21-2l-.37-.67A2.49,2.49,0,0,0,14.62,11l.43-.74a2.49,2.49,0,0,0,.79.14,2.52,2.52,0,0,0,2.46-2h.83a2.49,2.49,0,0,0,3.31,1.85l.42.73a2.48,2.48,0,0,0-.05,3.81Z"/>
      <path d="M12.89,1.21A4.64,4.64,0,0,0,9.7,0,4.64,4.64,0,0,0,6.51,1.21,4.86,4.86,0,0,0,5.18,5.07,5.21,5.21,0,0,0,6.67,8.13a4.29,4.29,0,0,0,3,1.71h0a4.27,4.27,0,0,0,3-1.71,5.22,5.22,0,0,0,1.49-3.06A4.86,4.86,0,0,0,12.89,1.21Zm-.36,3.7a3.56,3.56,0,0,1-1,2.08C11,7.47,10.42,8.13,9.7,8.14S8.48,7.59,7.92,7a3.55,3.55,0,0,1-1-2.08,3.19,3.19,0,0,1,.81-2.46,3,3,0,0,1,2-.74,3,3,0,0,1,2,.74A3.19,3.19,0,0,1,12.53,4.9Z"/>
      <path d="M11.76,17.39H1.92a7.91,7.91,0,0,1,4.57-5.25,6.73,6.73,0,0,0,3.1.82H9.7a6.56,6.56,0,0,0,.76-.05.85.85,0,0,0-.24-1.68,4.48,4.48,0,0,1-.52,0H9.61a5.09,5.09,0,0,1-2.72-.86.52.52,0,0,0-.29-.09.55.55,0,0,0-.18,0A9.63,9.63,0,0,0,0,18.4a.67.67,0,0,0,.11.4.74.74,0,0,0,.58.29H11.76a.85.85,0,0,0,0-1.7Z"/>
      <circle cx="18.75" cy="12.8" r="1.29"/>
    </g>
    <g id="report" enable-background="new 0 0 24 24" height="24px" viewBox="0 0 24 24" width="24px">
      <g>
        <path d="M0,0h24v24H0V0z" fill="none"/>
      </g>
      <g>
        <g>
          <path d="M15,3H5C3.9,3,3.01,3.9,3.01,5L3,19c0,1.1,0.89,2,1.99,2H19c1.1,0,2-0.9,2-2V9L15,3z M8,17c-0.55,0-1-0.45-1-1s0.45-1,1-1 s1,0.45,1,1S8.55,17,8,17z M8,13c-0.55,0-1-0.45-1-1s0.45-1,1-1s1,0.45,1,1S8.55,13,8,13z M8,9C7.45,9,7,8.55,7,8s0.45-1,1-1 s1,0.45,1,1S8.55,9,8,9z M14,10V4.5l5.5,5.5H14z"/>
        </g>
      </g>
    </g>
    <g id="my_company" enable-background="new 0 0 24 24" height="24px" viewBox="0 0 24 24" width="24px">
      <path d="M17 11V3H7v4H3v14h8v-4h2v4h8V11h-4zM7 19H5v-2h2v2zm0-4H5v-2h2v2zm0-4H5V9h2v2zm4 4H9v-2h2v2zm0-4H9V9h2v2zm0-4H9V5h2v2zm4 8h-2v-2h2v2zm0-4h-2V9h2v2zm0-4h-2V5h2v2zm4 12h-2v-2h2v2zm0-4h-2v-2h2v2z"/>
    </g>
    <g id="support" enable-background="new 0 0 24 24" height="24px" viewBox="0 0 24 24" width="24px">
      <path d="M21 8V7l-3 2-3-2v1l3 2 3-2zm1-5H2C.9 3 0 3.9 0 5v14c0 1.1.9 2 2 2h20c1.1 0 1.99-.9 1.99-2L24 5c0-1.1-.9-2-2-2zM8 6c1.66 0 3 1.34 3 3s-1.34 3-3 3-3-1.34-3-3 1.34-3 3-3zm6 12H2v-1c0-2 4-3.1 6-3.1s6 1.1 6 3.1v1zm8-6h-8V6h8v6z"/>
      <circle cx="18.75" cy="12.8" r="1.29"/>
    </g>
    <g id="banner-add" enable-background="new 0 0 24 24" height="24px" viewBox="0 0 24 24" width="24px">
      <path d="M21 3H3c-1.1 0-2 .9-2 2v14c0 1.1.9 2 2 2h18c1.1 0 2-.9 2-2V5c0-1.1-.9-2-2-2zm0 16H3V5h18v14zM13 8h-2v3H8v2h3v3h2v-3h3v-2h-3V8z"/>
    </g>
    <g id="coupon" enable-background="new 0 0 24 24" height="24px" viewBox="0 0 24 24" width="24px">
      <path d="M0 0h24v24H0z" fill="none"/>
      <path d="M12.79 21 3 11.21v2c0 .53.21 1.04.59 1.41l7.79 7.79c.78.78 2.05.78 2.83 0l6.21-6.21c.78-.78.78-2.05 0-2.83L12.79 21z"/>
      <path d="M11.38 17.41c.78.78 2.05.78 2.83 0l6.21-6.21c.78-.78.78-2.05 0-2.83L12.63.58C12.25.21 11.74 0 11.21 0H5C3.9 0 3 .9 3 2v6.21c0 .53.21 1.04.59 1.41l7.79 7.79zM7.25 3c.69 0 1.25.56 1.25 1.25S7.94 5.5 7.25 5.5 6 4.94 6 4.25 6.56 3 7.25 3z"/>
    </g>
    <g id="inventory_management" enable-background="new 0 0 24 24" height="24px" viewBox="0 0 24 24" width="24px">
      <path d="M0 0h24v24H0z" fill="none"/>
      <path d="M20 2H4c-1 0-2 .9-2 2v3.01c0 .72.43 1.34 1 1.69V20c0 1.1 1.1 2 2 2h14c.9 0 2-.9 2-2V8.7c.57-.35 1-.97 1-1.69V4c0-1.1-1-2-2-2zm-5 12H9v-2h6v2zm5-7H4V4l16-.02V7z"/>
    </g>
    <g id="homeLoans" enable-background="new 0 0 24 24" height="24px" viewBox="0 0 24 24" width="24px">
      <rect fill="none" height="24" width="24"/>
      <path d="M21,6.5V14h-2V7.5L14,4L9,7.5V9H7V6.5l7-5L21,6.5z M15.5,7h-1v1h1V7z M13.5,7h-1v1h1V7z M15.5,9h-1v1h1V9z M13.5,9h-1v1h1V9 z M19,16h-2c0-1.2-0.75-2.28-1.87-2.7L8.97,11H1v11h6v-1.44l7,1.94l8-2.5v-1C22,17.34,20.66,16,19,16z M3,20v-7h2v7H3z M13.97,20.41 L7,18.48V13h1.61l5.82,2.17C14.77,15.3,15,15.63,15,16c0,0-1.99-0.05-2.3-0.15l-2.38-0.79l-0.63,1.9l2.38,0.79 c0.51,0.17,1.04,0.26,1.58,0.26H19c0.39,0,0.74,0.23,0.9,0.56L13.97,20.41z"/>
    </g>
    <g id="contactUs" enable-background="new 0 0 24 24" height="24px" viewBox="0 0 24 24" width="24px">
      <path d="M0 0h24v24H0V0z" fill="none"/>
      <path d="M6.54 5c.06.89.21 1.76.45 2.59l-1.2 1.2c-.41-1.2-.67-2.47-.76-3.79h1.51m9.86 12.02c.85.24 1.72.39 2.6.45v1.49c-1.32-.09-2.59-.35-3.8-.75l1.2-1.19M7.5 3H4c-.55 0-1 .45-1 1 0 9.39 7.61 17 17 17 .55 0 1-.45 1-1v-3.49c0-.55-.45-1-1-1-1.24 0-2.45-.2-3.57-.57-.1-.04-.21-.05-.31-.05-.26 0-.51.1-.71.29l-2.2 2.2c-2.83-1.45-5.15-3.76-6.59-6.59l2.2-2.2c.28-.28.36-.67.25-1.02C8.7 6.45 8.5 5.25 8.5 4c0-.55-.45-1-1-1z"/>
    </g>
    <g id="requestCallback" enable-background="new 0 0 24 24" height="24px" viewBox="0 0 24 24" width="24px">
      <path d="M0 0h24v24H0V0z" fill="none"/>
      <path d="M20 15.51c-1.24 0-2.45-.2-3.57-.57-.1-.04-.21-.05-.31-.05-.26 0-.51.1-.71.29l-2.2 2.2c-2.83-1.45-5.15-3.76-6.59-6.59l2.2-2.2c.28-.28.36-.67.25-1.02C8.7 6.45 8.5 5.25 8.5 4c0-.55-.45-1-1-1H4c-.55 0-1 .45-1 1 0 9.39 7.61 17 17 17 .55 0 1-.45 1-1v-3.49c0-.55-.45-1-1-1zM5.03 5h1.5c.07.89.22 1.76.46 2.59l-1.2 1.2c-.41-1.2-.67-2.47-.76-3.79zM19 18.97c-1.32-.09-2.59-.35-3.8-.75l1.19-1.19c.85.24 1.72.39 2.6.45v1.49zM18 9h-2.59l5.02-5.02-1.41-1.41L14 7.59V5h-2v6h6z"/>
    </g>
    <g id="timer" height="24px" viewBox="0 0 24 24" width="24px" fill="#D64256">
      <path d="M0 0h24v24H0z" fill="none"/>
      <path d="M22 5.72l-4.6-3.86-1.29 1.53 4.6 3.86L22 5.72zM7.88 3.39L6.6 1.86 2 5.71l1.29 1.53 4.59-3.85zM12 4c-4.97 0-9 4.03-9 9s4.02 9 9 9c4.97 0 9-4.03 9-9s-4.03-9-9-9zm0 16c-3.87 0-7-3.13-7-7s3.13-7 7-7 7 3.13 7 7-3.13 7-7 7zm-1.46-5.47L8.41 12.4l-1.06 1.06 3.18 3.18 6-6-1.06-1.06-4.93 4.95z"/>
    </g>
    <g id="missing" viewBox="0 0 24 24" width="18px" height="18px">
      <circle cx="10" cy="8" r="4"/>
      <path d="M10.35,14.01C7.62,13.91,2,15.27,2,18v2h9.54C9.07,17.24,10.31,14.11,10.35,14.01z"/>
      <path d="M19.43,18.02C19.79,17.43,20,16.74,20,16c0-2.21-1.79-4-4-4s-4,1.79-4,4c0,2.21,1.79,4,4,4c0.74,0,1.43-0.22,2.02-0.57 L20.59,22L22,20.59L19.43,18.02z M16,18c-1.1,0-2-0.9-2-2c0-1.1,0.9-2,2-2s2,0.9,2,2C18,17.1,17.1,18,16,18z"/>
    </g>
    <g id="order" height="24px" viewBox="0 0 24 24" width="24px">
      <path d="M0 0h24v24H0z" fill="none"/>
      <path d="M7 18c-1.1 0-1.99.9-1.99 2S5.9 22 7 22s2-.9 2-2-.9-2-2-2zM1 2v2h2l3.6 7.59-1.35 2.45c-.16.28-.25.61-.25.96 0 1.1.9 2 2 2h12v-2H7.42c-.14 0-.25-.11-.25-.25l.03-.12.9-1.63h7.45c.75 0 1.41-.41 1.75-1.03l3.58-6.49c.08-.14.12-.31.12-.48 0-.55-.45-1-1-1H5.21l-.94-2H1zm16 16c-1.1 0-1.99.9-1.99 2s.89 2 1.99 2 2-.9 2-2-.9-2-2-2z"/>
    </g>
    <g id="feedback" height="24px" viewBox="0 0 24 24" width="24px">
      <path xmlns="http://www.w3.org/2000/svg" d="M16,3H5C3.9,3,3,3.9,3,5v14c0,1.1,0.9,2,2,2h14c1.1,0,2-0.9,2-2V8L16,3z M7,7h5v2H7V7z M17,17H7v-2h10V17z M17,13H7v-2h10 V13z M15,9V5l4,4H15z"/>
    </g>
    <g id="performance" fill-rule="evenodd" clip-rule="evenodd" stroke="none" stroke-width="1">
        <path fill-rule="evenodd" clip-rule="evenodd" d="M746.667 106.667V1493.33H1173.33V106.667H746.667ZM1056 224H864V1376H1056V224ZM106.667 533.333H533.333V1493.33H106.667V533.333ZM224 650.667H416V1376H224V650.667Z"/>
        <path d="M1920 1706.67H0V1824H1920V1706.67Z"/>
        <path fill-rule="evenodd" clip-rule="evenodd" d="M1386.67 746.667H1813.33V1493.33H1386.67V746.667ZM1504 864H1696V1376H1504V864Z"/>
    </g>
    <g id="left-arrow" enable-background="new 0 0 24 24" viewBox="0 0 24 24" fill="#000000" width="48px" height="48px">
      <rect fill="none" height="24" width="24" y="0"/>
      <path d="M15.29,15.46l-3.88-3.88l3.88-3.88c0.39-0.39,0.39-1.02,0-1.41l0,0c-0.39-0.39-1.02-0.39-1.41,0l-4.59,4.59 c-0.39,0.39-0.39,1.02,0,1.41l4.59,4.59c0.39,0.39,1.02,0.39,1.41,0l0,0C15.67,16.49,15.68,15.85,15.29,15.46z"/>
    </g>
    <g id="low-arrow" viewBox="0 0 24 24" fill="#FB4047" width="18px" height="18px">
      <path d="M0 0h24v24H0V0z" fill="none"/>
      <path d="M11 5v11.17l-4.88-4.88c-.39-.39-1.03-.39-1.42 0-.39.39-.39 1.02 0 1.41l6.59 6.59c.39.39 1.02.39 1.41 0l6.59-6.59c.39-.39.39-1.02 0-1.41-.39-.39-1.02-.39-1.41 0L13 16.17V5c0-.55-.45-1-1-1s-1 .45-1 1z"/>
    </g>
    <g id="high-arrow" viewBox="0 0 24 24" fill="#2DCE89" width="18px" height="18px">
      <path d="M0 0h24v24H0V0z" fill="none"/>
      <path d="M13 19V7.83l4.88 4.88c.39.39 1.03.39 1.42 0 .39-.39.39-1.02 0-1.41l-6.59-6.59c-.39-.39-1.02-.39-1.41 0l-6.6 6.58c-.39.39-.39 1.02 0 1.41.39.39 1.02.39 1.41 0L11 7.83V19c0 .55.45 1 1 1s1-.45 1-1z"/>
    </g>
    <g id="copy" height="18px" viewBox="0 0 24 24" width="18px">
      <path d="M0 0h24v24H0z" fill="none"/>
      <path d="M16 1H4c-1.1 0-2 .9-2 2v14h2V3h12V1zm3 4H8c-1.1 0-2 .9-2 2v14c0 1.1.9 2 2 2h11c1.1 0 2-.9 2-2V7c0-1.1-.9-2-2-2zm0 16H8V7h11v14z"/>
    </g>
    <g id="arrow-down" viewBox="0 0 24 24" fill="#555" width="18px" height="18px">
      <path d="M0 0h24v24H0V0z" fill="none"/>
      <path d="M7.41 8.59L12 13.17l4.59-4.58L18 10l-6 6-6-6 1.41-1.41z"/>
    </g>
    <g id="arrow-up" viewBox="0 0 24 24" fill="#555" width="18px" height="18px">
      <path d="M0 0h24v24H0z" fill="none"/>
      <path d="M7.41 15.41L12 10.83l4.59 4.58L18 14l-6-6-6 6z"/>
    </g>
    <g id="arrow-up" viewBox="0 0 24 24" fill="#555" width="18px" height="18px">
      <path d="M0 0h24v24H0z" fill="none"/>
      <path d="M7.41 15.41L12 10.83l4.59 4.58L18 14l-6-6-6 6z"/>
    </g>
    <g id="arrow-right" viewBox="0 0 24 24" fill="#555" width="18px" height="18px">
      <path d="M9.29 15.88L13.17 12 9.29 8.12c-.39-.39-.39-1.02 0-1.41.39-.39 1.02-.39 1.41 0l4.59 4.59c.39.39.39 1.02 0 1.41L10.7 17.3c-.39.39-1.02.39-1.41 0-.38-.39-.39-1.03 0-1.42z"/>
    </g>
    <g id="arrow-back" enable-background="new 0 0 24 24" height="24px" viewBox="0 0 24 24" width="24px">
      <path d="M0 0h24v24H0V0z" fill="none"/>
      <path d="M20 11H7.83l5.59-5.59L12 4l-8 8 8 8 1.41-1.41L7.83 13H20v-2z"/>
    </g>
    <g id="logo_facebook" width="10" height="16" viewBox="0 0 10 16">
      <defs>
        <style>
          .a{fill:#8181a5;}
        </style>
      </defs>
      <g transform="translate(-3)">
        <path class="a" d="M6.023,16,6,9H3V6H6V4c0-2.7,1.672-4,4.079-4a22.346,22.346,0,0,1,2.434.124V2.945h-1.67c-1.31,0-1.563.622-1.563,1.535V6H13L12,9H9.28v7Z"/>
      </g>
    </g>
    <g id="logo_github" width="16.1" height="15.62" viewBox="0 0 16.1 15.62">
      <defs>
        <style>
          .a{fill:#8181a5;fill-rule:evenodd;}
        </style>
      </defs>
      <g transform="translate(0 -0.2)">
        <path class="a" d="M8,.2a8.024,8.024,0,0,0-8,8,8.085,8.085,0,0,0,5.5,7.6c.4.1.5-.2.5-.4V14c-2.2.5-2.7-1-2.7-1a2.689,2.689,0,0,0-.9-1.2c-.7-.5.1-.5.1-.5a1.741,1.741,0,0,1,1.2.8,1.632,1.632,0,0,0,2.3.7,2.257,2.257,0,0,1,.5-1.1c-1.8-.2-3.6-.9-3.6-4a2.865,2.865,0,0,1,.8-2.1,2.486,2.486,0,0,1,.1-2.1s.7-.2,2.2.8A6.448,6.448,0,0,1,8,4a6.448,6.448,0,0,1,2,.3c1.5-1,2.2-.8,2.2-.8a2.983,2.983,0,0,1,.1,2.1,3.227,3.227,0,0,1,.8,2.1c0,3.1-1.9,3.7-3.7,3.9a2.578,2.578,0,0,1,.6,1.6v2.2c0,.2.1.5.6.4a8.085,8.085,0,0,0,5.5-7.6A8.176,8.176,0,0,0,8,.2Z"/>
      </g>
    </g>
    <g id="logo_linked_in" width="16.1" height="16" viewBox="0 0 16.1 16">
      <defs>
        <style>
          .a{fill:#8181a5;}
        </style>
      </defs>
      <path class="a" d="M15.3,0H.7A.684.684,0,0,0,0,.7V15.4a.669.669,0,0,0,.7.6H15.4a.684.684,0,0,0,.7-.7V.7A.849.849,0,0,0,15.3,0ZM4.7,13.6H2.4V6H4.8v7.6ZM3.6,5A1.43,1.43,0,0,1,2.2,3.6,1.367,1.367,0,0,1,3.6,2.2,1.367,1.367,0,0,1,5,3.6,1.593,1.593,0,0,1,3.6,5Zm10,8.6H11.2V9.9c0-.9,0-2-1.2-2s-1.4,1-1.4,2v3.8H6.2V6H8.5V7h0a2.441,2.441,0,0,1,2.2-1.2c2.4,0,2.8,1.6,2.8,3.6v4.2Z"/>
    </g>
    <g id="logo_twitter" width="16" height="13" viewBox="0 0 16 13">
      <defs>
        <style>
          .a{fill:#8181a5;}
        </style>
      </defs>
      <g transform="translate(0 -1.5)">
        <path class="a" d="M16,3a5.918,5.918,0,0,1-1.9.5,2.827,2.827,0,0,0,1.4-1.8,6.561,6.561,0,0,1-2.1.8,3.492,3.492,0,0,0-2.4-1A3.311,3.311,0,0,0,7.8,4.8a1.483,1.483,0,0,0,.1.7A9.2,9.2,0,0,1,1.1,2.1,3.064,3.064,0,0,0,.7,3.8,3.282,3.282,0,0,0,2.2,6.5,4.191,4.191,0,0,1,.7,6.1h0A3.228,3.228,0,0,0,3.3,9.3a2.769,2.769,0,0,1-.9.1,1.268,1.268,0,0,1-.6-.1,3.24,3.24,0,0,0,3.1,2.3A6.359,6.359,0,0,1,.8,13H0a9.757,9.757,0,0,0,5,1.5,9.256,9.256,0,0,0,9.3-9.3V4.8A5.814,5.814,0,0,0,16,3Z"/>
      </g>
    </g>
    <g id="fullscreen" height="24px" viewBox="0 0 24 24" width="24px">
      <path d="M0 0h24v24H0z" fill="none"/>
      <path d="M7 14H5v5h5v-2H7v-3zm-2-4h2V7h3V5H5v5zm12 7h-3v2h5v-5h-2v3zM14 5v2h3v3h2V5h-5z"/>
    </g>
    <g id="fullscreen-exit" height="24px" viewBox="0 0 24 24" width="24px">
      <path d="M0 0h24v24H0z" fill="none"/>
      <path d="M5 16h3v3h2v-5H5v2zm3-8H5v2h5V5H8v3zm6 11h2v-3h3v-2h-5v5zm2-11V5h-2v5h5V8h-3z"/>
    </g>
    <g id="link" height="18px" viewBox="0 0 24 24" width="18px">
      <path d="M0 0h24v24H0z" fill="none"/>
      <path d="M3.9 12c0-1.71 1.39-3.1 3.1-3.1h4V7H7c-2.76 0-5 2.24-5 5s2.24 5 5 5h4v-1.9H7c-1.71 0-3.1-1.39-3.1-3.1zM8 13h8v-2H8v2zm9-6h-4v1.9h4c1.71 0 3.1 1.39 3.1 3.1s-1.39 3.1-3.1 3.1h-4V17h4c2.76 0 5-2.24 5-5s-2.24-5-5-5z"/>
    </g>
    <g id="prev-page" height="24px" viewBox="0 0 24 24" width="24px" fill="#000000">
      <path d="M0 0h24v24H0z" fill="none"/>
      <path d="M15.41 7.41L14 6l-6 6 6 6 1.41-1.41L10.83 12z"/>
    </g>
    <g id="next-page" height="24px" viewBox="0 0 24 24" width="24px" fill="#000000">
      <path d="M0 0h24v24H0z" fill="none"/>
      <path d="M10 6L8.59 7.41 13.17 12l-4.58 4.59L10 18l6-6z"/>
    </g>
    <g id="email" height="24px" viewBox="0 0 24 24" width="24px" fill="#555">
      <path d="M0 0h24v24H0z" fill="none"/>
      <path d="M20 4H4c-1.1 0-1.99.9-1.99 2L2 18c0 1.1.9 2 2 2h16c1.1 0 2-.9 2-2V6c0-1.1-.9-2-2-2zm0 4-8 5-8-5V6l8 5 8-5v2z"/>
    </g>
    <g id="phone" height="24px" viewBox="0 0 24 24" width="24px" fill="#555">
      <path d="M0 0h24v24H0z" fill="none"/>
      <path d="M6.62 10.79c1.44 2.83 3.76 5.14 6.59 6.59l2.2-2.2c.27-.27.67-.36 1.02-.24 1.12.37 2.33.57 3.57.57.55 0 1 .45 1 1V20c0 .55-.45 1-1 1-9.39 0-17-7.61-17-17 0-.55.45-1 1-1h3.5c.55 0 1 .45 1 1 0 1.25.2 2.45.57 3.57.11.35.03.74-.25 1.02l-2.2 2.2z"/>
    </g>
    <g id="goback" height="24px" viewBox="0 0 24 24" width="24px" fill="#333">
      <path d="M0 0h24v24H0z" fill="none"/>
      <path d="M20 11H7.83l5.59-5.59L12 4l-8 8 8 8 1.41-1.41L7.83 13H20v-2z"/>
    </g>
    <g id="edit" height="24px" viewBox="0 0 24 24" width="24px" fill="#333">
      <path d="M0 0h24v24H0z" fill="none"/>
      <path d="M3 17.25V21h3.75L17.81 9.94l-3.75-3.75L3 17.25zM20.71 7.04c.39-.39.39-1.02 0-1.41l-2.34-2.34a.9959.9959 0 0 0-1.41 0l-1.83 1.83 3.75 3.75 1.83-1.83z"/>
    </g>
    <g id="avatar" height="24px" viewBox="0 0 24 24" width="24px" fill="#333">
      <path d="M0 0h24v24H0z" fill="none"/>
      <path d="M12 2C6.48 2 2 6.48 2 12s4.48 10 10 10 10-4.48 10-10S17.52 2 12 2zm0 3c1.66 0 3 1.34 3 3s-1.34 3-3 3-3-1.34-3-3 1.34-3 3-3zm0 14.2c-2.5 0-4.71-1.28-6-3.22.03-1.99 4-3.08 6-3.08 1.99 0 5.97 1.09 6 3.08-1.29 1.94-3.5 3.22-6 3.22z"/>
    </g>
    <g id="white-edit" height="16px" viewBox="0 0 18 18" margin="5px" width="24px" fill="#ffffff">
      <path d="M0 0h24v24H0z" fill="none"/>
      <path d="M3 17.25V21h3.75L17.81 9.94l-3.75-3.75L3 17.25zM20.71 7.04c.39-.39.39-1.02 0-1.41l-2.34-2.34a.9959.9959 0 0 0-1.41 0l-1.83 1.83 3.75 3.75 1.83-1.83z"/>
    </g>
    <g id="search" height="16px" viewBox="0 0 18 18" margin="5px" width="24px" fill="var(--color-bg)">
    <!-- <rect width="24" height="24" fill="white"/> -->
<circle cx="10.5" cy="10.5" r="6.5" stroke="#000000" stroke-linejoin="round"/>
<path d="M19.6464 20.3536C19.8417 20.5488 20.1583 20.5488 20.3536 20.3536C20.5488 20.1583 20.5488 19.8417 20.3536 19.6464L19.6464 20.3536ZM20.3536 19.6464L15.3536 14.6464L14.6464 15.3536L19.6464 20.3536L20.3536 19.6464Z" fill="var(--text-color)"/>    </g>
    <g id="delete" height="16px" viewBox="0 0 18 18" margin="5px" width="24px" fill="#000">
      <path d="M0 0h24v24H0z" fill="none"/>
      <path d="M6 19c0 1.1.9 2 2 2h8c1.1 0 2-.9 2-2V7H6v12zM19 4h-3.5l-1-1h-5l-1 1H5v2h14V4z"/>
    </g>
    <g id="done" height="16px" viewBox="0 0 18 18" margin="5px" width="24px" fill="#198754">
      <path d="M0 0h24v24H0z" fill="none"/>
      <path d="M12 2C6.48 2 2 6.48 2 12s4.48 10 10 10 10-4.48 10-10S17.52 2 12 2zm-2 15-5-5 1.41-1.41L10 14.17l7.59-7.59L19 8l-9 9z"/>
    </g>
    <g id="cancel" height="16px" viewBox="0 0 18 18" margin="5px" width="24px" fill="#ff0000">
      <path d="M0 0h24v24H0z" fill="none"/>
      <path d="M12 2C6.47 2 2 6.47 2 12s4.47 10 10 10 10-4.47 10-10S17.53 2 12 2zm5 13.59L15.59 17 12 13.41 8.41 17 7 15.59 10.59 12 7 8.41 8.41 7 12 10.59 15.59 7 17 8.41 13.41 12 17 15.59z"/>
    </g>
    <g id="pending" height="16px" viewBox="0 0 18 18" margin="5px" width="24px" fill="#FFA500">
      <path d="M0 0h24v24H0z" fill="none"/>
      <path d="M17 12c-2.76 0-5 2.24-5 5s2.24 5 5 5 5-2.24 5-5-2.24-5-5-5zm1.65 7.35L16.5 17.2V14h1v2.79l1.85 1.85-.7.71zM18 3h-3.18C14.4 1.84 13.3 1 12 1s-2.4.84-2.82 2H6c-1.1 0-2 .9-2 2v15c0 1.1.9 2 2 2h6.11c-.59-.57-1.07-1.25-1.42-2H6V5h2v3h8V5h2v5.08c.71.1 1.38.31 2 .6V5c0-1.1-.9-2-2-2zm-6 2c-.55 0-1-.45-1-1s.45-1 1-1 1 .45 1 1-.45 1-1 1z"/>
    </g>
    <g id="open" height="24px" viewBox="0 0 24 24" width="24px" fill="#333">
      <path d="M0 0h24v24H0z" fill="none"/>
      <path d="M19 13H5v-2h14v2z"/>
    </g>
    <g id="close" height="24px" viewBox="0 0 24 24" width="24px" fill="#333">
      <path d="M0 0h24v24H0z" fill="none"/>
      <path d="M19 13h-6v6h-2v-6H5v-2h6V5h2v6h6v2z"/>
    </g>
    <g id="delete-item" height="24px" viewBox="0 0 24 24" width="24px" fill="#DB605D">
      <path d="M0 0h24v24H0V0z" fill="none"/>
      <path d="M6 19c0 1.1.9 2 2 2h8c1.1 0 2-.9 2-2V9c0-1.1-.9-2-2-2H8c-1.1 0-2 .9-2 2v10zM18 4h-2.5l-.71-.71c-.18-.18-.44-.29-.7-.29H9.91c-.26 0-.52.11-.7.29L8.5 4H6c-.55 0-1 .45-1 1s.45 1 1 1h12c.55 0 1-.45 1-1s-.45-1-1-1z"/>
    </g>
    <g id="rating" viewBox="0 0 24 24" width="18px" height="18px">
      <path d="M12 17.27L18.18 21l-1.64-7.03L22 9.24l-7.19-.61L12 2 9.19 8.63 2 9.24l5.46 4.73L5.82 21z"/>
      <path d="M0 0h24v24H0z" fill="none"/>
    </g>
    <g id="stocks" viewBox="0 0 24 24" width="24px" height="24px">
    <path fill-rule="evenodd" clip-rule="evenodd" d="M12 3.66333L20.25 7.7398V17.01L12 21.0865L3.75 17.01V7.7398L12 3.66333ZM5.25 9.41292V16.078L11.25 19.0427V12.3776L5.25 9.41292ZM12.75 12.3776V19.0427L18.75 16.078V9.41292L16.5 10.5247V13.4999L15 14.2499V11.2659L12.75 12.3776ZM17.807 8.20577L15.8527 9.17139C15.8099 9.13606 15.7624 9.10498 15.7106 9.07908L10.1015 6.27454L12 5.33645L17.807 8.20577ZM8.41452 7.1081L14.1871 9.9944L12 11.0751L6.19304 8.20577L8.41452 7.1081Z" />
    </g>
    <g id="business-application" viewBox="0 0 24 24" width="18px" height="18px">
      <path d="M21.3,19a2.42,2.42,0,0,1-2.5.56l-2.35,2.35a.34.34,0,0,1-.49,0l-1-1a.36.36,0,0,1,0-.49l2.36-2.35a2.39,2.39,0,0,1,3.39-2.91L19.12,16.8l1,1,1.62-1.62A2.39,2.39,0,0,1,21.3,19ZM22,8v5.76A4.47,4.47,0,0,0,19.5,13a4.57,4.57,0,0,0-1.29.19V9.29H16.66V14A4.5,4.5,0,0,0,15,17.5a4.07,4.07,0,0,0,0,.5H4a2,2,0,0,1-2-2V8A2,2,0,0,1,4,6H20A2,2,0,0,1,22,8ZM11,15,9.09,9.27H7L5.17,15h1.7l.29-1.07H9L9.29,15Zm4.77-3.89a1.67,1.67,0,0,0-.55-1.35,2.43,2.43,0,0,0-1.62-.47h-2V15h1.54V13.11h.44a2.75,2.75,0,0,0,1-.17,1.82,1.82,0,0,0,.67-.44,1.63,1.63,0,0,0,.36-.64A2.36,2.36,0,0,0,15.75,11.11Zm-7.3.62-.12-.44-.15-.58c0-.21-.08-.37-.11-.5a4.63,4.63,0,0,1-.1.48c0,.19-.08.38-.13.57s-.08.34-.12.47l-.24.93H8.69Zm5.59-1a.63.63,0,0,0-.5-.17h-.4v1.31h.31a.9.9,0,0,0,.37-.07.59.59,0,0,0,.27-.22.75.75,0,0,0,.11-.42A.57.57,0,0,0,14,10.71Z"/>
    </g>
    <g id="filters" viewBox="0 0 24 24" width="18px" height="18px">
<path d="M4 5H7M14 5L20 5M14 5C14 3.89543 13.1046 3 12 3C10.8954 3 10 3.89543 10 5C10 6.10457 10.8954 7 12 7C13.1046 7 14 6.10457 14 5ZM10 12H16M16 12C16 13.1046 16.8954 14 18 14C19.1046 14 20 13.1046 20 12C20 10.8954 19.1046 10 18 10C16.8954 10 16 10.8954 16 12ZM4 12H7M11 19H20M6 17C7.10457 17 8 17.8954 8 19C8 20.1046 7.10457 21 6 21C4.89543 21 4 20.1046 4 19C4 17.8954 4.89543 17 6 17Z" stroke="var(--gray-700)" stroke-width="1.5" stroke-linecap="round"/>      </g>
  </defs>
    <g id="arrow-up-right" viewBox="0 0 24 24" width="18px" height="18px" >
<path fill-rule="evenodd"  d="M18.25 15.5a.75.75 0 00.75-.75v-9a.75.75 0 00-.75-.75h-9a.75.75 0 000 1.5h7.19L6.22 16.72a.75.75 0 101.06 1.06L17.5 7.56v7.19c0 .414.336.75.75.75z"/>
</g>
  </defs>
</svg>

